<?xml version="1.0" standalone="no"?><!DOCTYPE svg PUBLIC "-//W3C//DTD SVG 1.1//EN" "http://www.w3.org/Graphics/SVG/1.1/DTD/svg11.dtd"><svg t="1536926934762" class="icon" style="" viewBox="0 0 1024 1024" version="1.1" xmlns="http://www.w3.org/2000/svg" p-id="1026" xmlns:xlink="http://www.w3.org/1999/xlink" width="32" height="32"><defs><style type="text/css"></style></defs><path d="M768.736 77.088H256.224L128.096 205.216l64.064 512.512 256.256 256.256h128.128l256.256-256.256 64.064-512.512-128.128-128.128z m6.432 608.576l-224.224 224.224h-6.4v-192.192h-64.064v192.192h-6.4l-224.224-224.224L198.592 230.816 281.888 141.12h461.248l89.696 89.696-57.664 454.848zM320.32 397.376h128.128v64.064H320.32v-64.064z m256.256 0h128.128v64.064h-128.128v-64.064z m51.232 224.224h-38.432l-76.864-76.864-76.864 76.864h-38.432l-51.264-57.664-51.264 51.264 76.864 70.464h89.696l51.264-51.264 51.264 51.264h89.696l76.864-70.464-51.264-51.264z m-192.192-262.656l25.632-51.264L313.92 230.816 230.624 307.68l51.264 51.264 44.832-51.264z m128.128-51.232l25.632 51.264 108.896-51.264 44.832 51.264 51.264-51.264-83.296-76.864z" p-id="1027" fill="#ffffff"></path></svg>